<svg xmlns="http://www.w3.org/2000/svg" width="390" height="844" viewBox="0 0 390 844" role="img" aria-label="Pending Catch host live console app capture">
  <rect width="390" height="844" rx="34" fill="#fff8f1"/>
  <text x="24" y="82" fill="#1a1410" font-family="Inter, Arial, sans-serif" font-size="27" font-weight="700">Live console</text>
  <rect x="24" y="114" width="104" height="78" rx="22" fill="#ffffff"/>
  <rect x="143" y="114" width="104" height="78" rx="22" fill="#ffffff"/>
  <rect x="262" y="114" width="104" height="78" rx="22" fill="#ffffff"/>
  <rect x="24" y="222" width="342" height="108" rx="28" fill="#0b3b3c"/>
  <rect x="48" y="250" width="172" height="16" rx="8" fill="#ffffff" opacity=".9"/>
  <rect x="48" y="282" width="246" height="12" rx="6" fill="#ffffff" opacity=".42"/>
  <rect x="24" y="362" width="342" height="72" rx="24" fill="#ffffff"/>
  <circle cx="62" cy="398" r="20" fill="#ffe2d4"/>
  <rect x="96" y="386" width="116" height="14" rx="7" fill="#1a1410"/>
  <rect x="24" y="450" width="342" height="72" rx="24" fill="#ffffff"/>
  <circle cx="62" cy="486" r="20" fill="#ffb48c"/>
  <rect x="96" y="474" width="132" height="14" rx="7" fill="#1a1410"/>
  <rect x="24" y="538" width="342" height="72" rx="24" fill="#ffffff"/>
  <circle cx="62" cy="574" r="20" fill="#ffd5bd"/>
  <rect x="96" y="562" width="128" height="14" rx="7" fill="#1a1410"/>
  <text x="24" y="760" fill="#9c8775" font-family="Inter, Arial, sans-serif" font-size="13" font-weight="700">Capture pending: salesDemo.host.liveConsole</text>
</svg>
