<svg xmlns="http://www.w3.org/2000/svg" width="390" height="844" viewBox="0 0 390 844" role="img" aria-label="Pending Catch host post-event report app capture">
  <rect width="390" height="844" rx="34" fill="#fff8f1"/>
  <text x="24" y="82" fill="#1a1410" font-family="Inter, Arial, sans-serif" font-size="27" font-weight="700">Post-event report</text>
  <rect x="24" y="120" width="342" height="124" rx="30" fill="#ffffff"/>
  <circle cx="86" cy="182" r="38" fill="#ff4e1f" opacity=".18"/>
  <path d="M66 184 L82 200 L108 162" fill="none" stroke="#ff4e1f" stroke-width="8" stroke-linecap="round" stroke-linejoin="round"/>
  <rect x="148" y="160" width="156" height="16" rx="8" fill="#1a1410"/>
  <rect x="148" y="192" width="128" height="12" rx="6" fill="#5c4a3a" opacity=".38"/>
  <rect x="24" y="278" width="156" height="124" rx="26" fill="#ffffff"/>
  <rect x="210" y="278" width="156" height="124" rx="26" fill="#ffffff"/>
  <rect x="24" y="436" width="342" height="170" rx="30" fill="#0b3b3c"/>
  <path d="M52 554 C96 498 132 526 164 490 C206 442 250 512 334 462" fill="none" stroke="#ffb48c" stroke-width="8" stroke-linecap="round"/>
  <text x="24" y="760" fill="#9c8775" font-family="Inter, Arial, sans-serif" font-size="13" font-weight="700">Capture pending: salesDemo.host.postEventReport</text>
</svg>
