<svg xmlns="http://www.w3.org/2000/svg" width="390" height="844" viewBox="0 0 390 844" role="img" aria-label="Pending Catch event discovery app capture">
  <rect width="390" height="844" rx="34" fill="#fff8f1"/>
  <rect x="24" y="34" width="138" height="16" rx="8" fill="#ff4e1f" opacity=".22"/>
  <text x="24" y="88" fill="#1a1410" font-family="system-ui, Arial, sans-serif" font-size="29" font-weight="700">Discover runs</text>
  <rect x="24" y="118" width="342" height="52" rx="20" fill="#ffe2d4"/>
  <rect x="24" y="196" width="342" height="246" rx="28" fill="#ffffff"/>
  <rect x="44" y="216" width="302" height="128" rx="22" fill="#f6d6c4"/>
  <path d="M56 312 C126 250 175 333 242 278 C282 245 310 253 338 224" fill="none" stroke="#ff4e1f" stroke-width="8" stroke-linecap="round"/>
  <rect x="44" y="366" width="190" height="18" rx="9" fill="#1a1410"/>
  <rect x="44" y="396" width="244" height="14" rx="7" fill="#5c4a3a" opacity=".42"/>
  <rect x="24" y="466" width="342" height="104" rx="24" fill="#ffffff"/>
  <rect x="24" y="586" width="342" height="104" rx="24" fill="#ffffff"/>
  <text x="24" y="760" fill="#9c8775" font-family="system-ui, Arial, sans-serif" font-size="13" font-weight="700">Catch event discovery</text>
</svg>
